G75*
%MOIN*%
%OFA0B0*%
%FSLAX25Y25*%
%IPPOS*%
%LPD*%
%AMOC8*
5,1,8,0,0,1.08239X$1,22.5*
%
%ADD10C,0.00400*%
%ADD11C,0.00000*%
%ADD12C,0.00600*%
%ADD13C,0.00500*%
D10*
X0031200Y0011404D02*
X0034670Y0011404D01*
X0036356Y0011404D02*
X0036356Y0006200D01*
X0036356Y0008802D02*
X0037224Y0009670D01*
X0038959Y0009670D01*
X0039826Y0008802D01*
X0039826Y0006200D01*
X0041513Y0007067D02*
X0041513Y0008802D01*
X0042380Y0009670D01*
X0044115Y0009670D01*
X0044982Y0008802D01*
X0044982Y0007935D01*
X0041513Y0007935D01*
X0041513Y0007067D02*
X0042380Y0006200D01*
X0044115Y0006200D01*
X0051826Y0006200D02*
X0054428Y0006200D01*
X0055295Y0007067D01*
X0055295Y0007935D01*
X0054428Y0008802D01*
X0051826Y0008802D01*
X0054428Y0008802D02*
X0055295Y0009670D01*
X0055295Y0010537D01*
X0054428Y0011404D01*
X0051826Y0011404D01*
X0051826Y0006200D01*
X0056982Y0007067D02*
X0057849Y0007935D01*
X0060452Y0007935D01*
X0060452Y0008802D02*
X0060452Y0006200D01*
X0057849Y0006200D01*
X0056982Y0007067D01*
X0057849Y0009670D02*
X0059584Y0009670D01*
X0060452Y0008802D01*
X0062138Y0007935D02*
X0064741Y0009670D01*
X0067303Y0009670D02*
X0069038Y0009670D01*
X0069905Y0008802D01*
X0069905Y0006200D01*
X0067303Y0006200D01*
X0066435Y0007067D01*
X0067303Y0007935D01*
X0069905Y0007935D01*
X0064741Y0006200D02*
X0062138Y0007935D01*
X0062138Y0006200D02*
X0062138Y0011404D01*
X0076748Y0011404D02*
X0076748Y0006200D01*
X0076748Y0007935D02*
X0080218Y0011404D01*
X0082772Y0009670D02*
X0084507Y0009670D01*
X0085374Y0008802D01*
X0085374Y0007935D01*
X0081905Y0007935D01*
X0081905Y0008802D02*
X0082772Y0009670D01*
X0081905Y0008802D02*
X0081905Y0007067D01*
X0082772Y0006200D01*
X0084507Y0006200D01*
X0087061Y0007067D02*
X0087928Y0006200D01*
X0090531Y0006200D01*
X0090531Y0005333D02*
X0089663Y0004465D01*
X0088796Y0004465D01*
X0090531Y0005333D02*
X0090531Y0009670D01*
X0092217Y0009670D02*
X0094820Y0009670D01*
X0095687Y0008802D01*
X0095687Y0007067D01*
X0094820Y0006200D01*
X0092217Y0006200D01*
X0092217Y0011404D01*
X0087061Y0009670D02*
X0087061Y0007067D01*
X0080218Y0006200D02*
X0077616Y0008802D01*
X0097374Y0008802D02*
X0097374Y0007067D01*
X0098241Y0006200D01*
X0099976Y0006200D01*
X0100843Y0007067D01*
X0100843Y0008802D01*
X0099976Y0009670D01*
X0098241Y0009670D01*
X0097374Y0008802D01*
X0102530Y0007067D02*
X0103398Y0007935D01*
X0106000Y0007935D01*
X0106000Y0008802D02*
X0106000Y0006200D01*
X0103398Y0006200D01*
X0102530Y0007067D01*
X0103398Y0009670D02*
X0105132Y0009670D01*
X0106000Y0008802D01*
X0107687Y0007935D02*
X0109421Y0009670D01*
X0110289Y0009670D01*
X0111984Y0008802D02*
X0112851Y0009670D01*
X0115453Y0009670D01*
X0115453Y0011404D02*
X0115453Y0006200D01*
X0112851Y0006200D01*
X0111984Y0007067D01*
X0111984Y0008802D01*
X0107687Y0009670D02*
X0107687Y0006200D01*
X0122296Y0006200D02*
X0122296Y0011404D01*
X0124899Y0011404D01*
X0125766Y0010537D01*
X0125766Y0008802D01*
X0124899Y0007935D01*
X0122296Y0007935D01*
X0127453Y0007935D02*
X0129188Y0009670D01*
X0130055Y0009670D01*
X0131750Y0008802D02*
X0131750Y0007067D01*
X0132617Y0006200D01*
X0134352Y0006200D01*
X0135219Y0007067D01*
X0135219Y0008802D01*
X0134352Y0009670D01*
X0132617Y0009670D01*
X0131750Y0008802D01*
X0127453Y0009670D02*
X0127453Y0006200D01*
X0136906Y0004465D02*
X0137774Y0004465D01*
X0138641Y0005333D01*
X0138641Y0009670D01*
X0138641Y0011404D02*
X0138641Y0012272D01*
X0141211Y0009670D02*
X0142946Y0009670D01*
X0143813Y0008802D01*
X0143813Y0007935D01*
X0140344Y0007935D01*
X0140344Y0008802D02*
X0141211Y0009670D01*
X0140344Y0008802D02*
X0140344Y0007067D01*
X0141211Y0006200D01*
X0142946Y0006200D01*
X0145500Y0007067D02*
X0145500Y0008802D01*
X0146368Y0009670D01*
X0148970Y0009670D01*
X0150657Y0009670D02*
X0152391Y0009670D01*
X0151524Y0010537D02*
X0151524Y0007067D01*
X0152391Y0006200D01*
X0148970Y0006200D02*
X0146368Y0006200D01*
X0145500Y0007067D01*
X0032935Y0006200D02*
X0032935Y0011404D01*
X0044515Y0170596D02*
X0044515Y0171463D01*
X0047985Y0174933D01*
X0047985Y0175800D01*
X0049672Y0175800D02*
X0053141Y0175800D01*
X0051406Y0175800D02*
X0051406Y0170596D01*
X0053141Y0172330D01*
X0054828Y0171463D02*
X0055695Y0170596D01*
X0057430Y0170596D01*
X0058298Y0171463D01*
X0058298Y0174933D01*
X0054828Y0171463D01*
X0054828Y0174933D01*
X0055695Y0175800D01*
X0057430Y0175800D01*
X0058298Y0174933D01*
X0059984Y0175800D02*
X0063454Y0175800D01*
X0059984Y0172330D01*
X0059984Y0171463D01*
X0060852Y0170596D01*
X0062587Y0170596D01*
X0063454Y0171463D01*
X0065141Y0170596D02*
X0068610Y0175800D01*
X0070297Y0175800D02*
X0073767Y0175800D01*
X0072032Y0175800D02*
X0072032Y0170596D01*
X0073767Y0172330D01*
X0075454Y0171463D02*
X0076321Y0170596D01*
X0078056Y0170596D01*
X0078923Y0171463D01*
X0078923Y0174933D01*
X0075454Y0171463D01*
X0075454Y0174933D01*
X0076321Y0175800D01*
X0078056Y0175800D01*
X0078923Y0174933D01*
X0085766Y0175800D02*
X0089236Y0175800D01*
X0090923Y0175800D02*
X0094392Y0175800D01*
X0096103Y0175800D02*
X0096971Y0175800D01*
X0096971Y0174933D01*
X0096103Y0174933D01*
X0096103Y0175800D01*
X0098657Y0174933D02*
X0098657Y0171463D01*
X0102127Y0174933D01*
X0101260Y0175800D01*
X0099525Y0175800D01*
X0098657Y0174933D01*
X0102127Y0174933D02*
X0102127Y0171463D01*
X0101260Y0170596D01*
X0099525Y0170596D01*
X0098657Y0171463D01*
X0094392Y0172330D02*
X0092658Y0170596D01*
X0092658Y0175800D01*
X0089236Y0172330D02*
X0087501Y0170596D01*
X0087501Y0175800D01*
X0108970Y0175800D02*
X0108970Y0173198D01*
X0109838Y0172330D01*
X0112440Y0172330D01*
X0112440Y0175800D01*
X0114127Y0174933D02*
X0114127Y0173198D01*
X0114994Y0172330D01*
X0116729Y0172330D01*
X0117596Y0173198D01*
X0117596Y0174933D01*
X0116729Y0175800D01*
X0114994Y0175800D01*
X0114127Y0174933D01*
X0119299Y0175800D02*
X0121034Y0175800D01*
X0120166Y0175800D02*
X0120166Y0172330D01*
X0121034Y0172330D01*
X0122721Y0172330D02*
X0125323Y0172330D01*
X0126190Y0173198D01*
X0125323Y0174065D01*
X0123588Y0174065D01*
X0122721Y0174933D01*
X0123588Y0175800D01*
X0126190Y0175800D01*
X0127885Y0172330D02*
X0128752Y0172330D01*
X0130487Y0174065D01*
X0132174Y0174065D02*
X0135644Y0174065D01*
X0135644Y0173198D02*
X0134776Y0172330D01*
X0133041Y0172330D01*
X0132174Y0173198D01*
X0132174Y0174065D01*
X0133041Y0175800D02*
X0134776Y0175800D01*
X0135644Y0174933D01*
X0135644Y0173198D01*
X0137330Y0174065D02*
X0137330Y0170596D01*
X0137330Y0174065D02*
X0139065Y0175800D01*
X0140800Y0174065D01*
X0140800Y0170596D01*
X0130487Y0172330D02*
X0130487Y0175800D01*
X0120166Y0170596D02*
X0120166Y0169728D01*
X0047985Y0170596D02*
X0044515Y0170596D01*
D11*
X0001000Y0001000D02*
X0181000Y0001000D01*
X0181000Y0181000D01*
X0001000Y0181000D01*
X0001000Y0001000D01*
D12*
X0013500Y0021000D02*
X0018500Y0021000D01*
X0021000Y0023500D01*
X0023500Y0021000D01*
X0028500Y0021000D01*
X0031000Y0023500D01*
X0031000Y0028500D01*
X0028500Y0031000D01*
X0023500Y0031000D01*
X0021000Y0028500D01*
X0021000Y0023500D01*
X0021000Y0028500D02*
X0018500Y0031000D01*
X0013500Y0031000D01*
X0011000Y0028500D01*
X0011000Y0023500D01*
X0013500Y0021000D01*
X0031000Y0023500D02*
X0033500Y0021000D01*
X0038500Y0021000D01*
X0041000Y0023500D01*
X0043500Y0021000D01*
X0048500Y0021000D01*
X0051000Y0023500D01*
X0053500Y0021000D01*
X0058500Y0021000D01*
X0061000Y0023500D01*
X0061000Y0028500D01*
X0058500Y0031000D01*
X0053500Y0031000D01*
X0051000Y0028500D01*
X0051000Y0023500D01*
X0051000Y0028500D02*
X0048500Y0031000D01*
X0043500Y0031000D01*
X0041000Y0028500D01*
X0041000Y0023500D01*
X0041000Y0028500D02*
X0038500Y0031000D01*
X0033500Y0031000D01*
X0031000Y0028500D01*
X0028500Y0056000D02*
X0023500Y0056000D01*
X0021000Y0058500D01*
X0018500Y0056000D01*
X0013500Y0056000D01*
X0011000Y0058500D01*
X0011000Y0063500D01*
X0013500Y0066000D01*
X0018500Y0066000D01*
X0021000Y0063500D01*
X0023500Y0066000D01*
X0028500Y0066000D01*
X0031000Y0063500D01*
X0031000Y0058500D01*
X0028500Y0056000D01*
X0031000Y0058500D02*
X0033500Y0056000D01*
X0038500Y0056000D01*
X0041000Y0058500D01*
X0043500Y0056000D01*
X0048500Y0056000D01*
X0051000Y0058500D01*
X0053500Y0056000D01*
X0058500Y0056000D01*
X0061000Y0058500D01*
X0061000Y0063500D01*
X0058500Y0066000D01*
X0053500Y0066000D01*
X0051000Y0063500D01*
X0051000Y0058500D01*
X0051000Y0063500D02*
X0048500Y0066000D01*
X0043500Y0066000D01*
X0041000Y0063500D01*
X0041000Y0058500D01*
X0041000Y0063500D02*
X0038500Y0066000D01*
X0033500Y0066000D01*
X0031000Y0063500D01*
X0021000Y0063500D02*
X0021000Y0058500D01*
X0061000Y0058500D02*
X0063500Y0056000D01*
X0068500Y0056000D01*
X0071000Y0058500D01*
X0073500Y0056000D01*
X0078500Y0056000D01*
X0081000Y0058500D01*
X0083500Y0056000D01*
X0088500Y0056000D01*
X0091000Y0058500D01*
X0091000Y0063500D01*
X0088500Y0066000D01*
X0083500Y0066000D01*
X0081000Y0063500D01*
X0081000Y0058500D01*
X0081000Y0063500D02*
X0078500Y0066000D01*
X0073500Y0066000D01*
X0071000Y0063500D01*
X0071000Y0058500D01*
X0071000Y0063500D02*
X0068500Y0066000D01*
X0063500Y0066000D01*
X0061000Y0063500D01*
X0091000Y0063500D02*
X0093500Y0066000D01*
X0098500Y0066000D01*
X0101000Y0063500D01*
X0103500Y0066000D01*
X0108500Y0066000D01*
X0111000Y0063500D01*
X0113500Y0066000D01*
X0118500Y0066000D01*
X0121000Y0063500D01*
X0123500Y0066000D01*
X0128500Y0066000D01*
X0131000Y0063500D01*
X0131000Y0058500D01*
X0128500Y0056000D01*
X0123500Y0056000D01*
X0121000Y0058500D01*
X0118500Y0056000D01*
X0113500Y0056000D01*
X0111000Y0058500D01*
X0108500Y0056000D01*
X0103500Y0056000D01*
X0101000Y0058500D01*
X0098500Y0056000D01*
X0093500Y0056000D01*
X0091000Y0058500D01*
X0101000Y0058500D02*
X0101000Y0063500D01*
X0111000Y0063500D02*
X0111000Y0058500D01*
X0121000Y0058500D02*
X0121000Y0063500D01*
X0138500Y0086000D02*
X0143500Y0086000D01*
X0146000Y0088500D01*
X0146000Y0093500D01*
X0143500Y0096000D01*
X0138500Y0096000D01*
X0136000Y0093500D01*
X0136000Y0088500D01*
X0138500Y0086000D01*
X0158500Y0066000D02*
X0156000Y0063500D01*
X0156000Y0058500D01*
X0158500Y0056000D01*
X0163500Y0056000D01*
X0166000Y0058500D01*
X0166000Y0063500D01*
X0163500Y0066000D01*
X0158500Y0066000D01*
X0121000Y0028500D02*
X0121000Y0023500D01*
X0118500Y0021000D01*
X0113500Y0021000D01*
X0111000Y0023500D01*
X0108500Y0021000D01*
X0103500Y0021000D01*
X0101000Y0023500D01*
X0098500Y0021000D01*
X0093500Y0021000D01*
X0091000Y0023500D01*
X0088500Y0021000D01*
X0083500Y0021000D01*
X0081000Y0023500D01*
X0078500Y0021000D01*
X0073500Y0021000D01*
X0071000Y0023500D01*
X0068500Y0021000D01*
X0063500Y0021000D01*
X0061000Y0023500D01*
X0061000Y0028500D02*
X0063500Y0031000D01*
X0068500Y0031000D01*
X0071000Y0028500D01*
X0073500Y0031000D01*
X0078500Y0031000D01*
X0081000Y0028500D01*
X0083500Y0031000D01*
X0088500Y0031000D01*
X0091000Y0028500D01*
X0091000Y0023500D01*
X0091000Y0028500D02*
X0093500Y0031000D01*
X0098500Y0031000D01*
X0101000Y0028500D01*
X0103500Y0031000D01*
X0108500Y0031000D01*
X0111000Y0028500D01*
X0113500Y0031000D01*
X0118500Y0031000D01*
X0121000Y0028500D01*
X0111000Y0028500D02*
X0111000Y0023500D01*
X0101000Y0023500D02*
X0101000Y0028500D01*
X0081000Y0028500D02*
X0081000Y0023500D01*
X0071000Y0023500D02*
X0071000Y0028500D01*
X0068500Y0116000D02*
X0063500Y0116000D01*
X0061000Y0118500D01*
X0058500Y0116000D01*
X0053500Y0116000D01*
X0051000Y0118500D01*
X0048500Y0116000D01*
X0043500Y0116000D01*
X0041000Y0118500D01*
X0038500Y0116000D01*
X0033500Y0116000D01*
X0031000Y0118500D01*
X0028500Y0116000D01*
X0023500Y0116000D01*
X0021000Y0118500D01*
X0018500Y0116000D01*
X0013500Y0116000D01*
X0011000Y0118500D01*
X0011000Y0123500D01*
X0013500Y0126000D01*
X0018500Y0126000D01*
X0021000Y0123500D01*
X0023500Y0126000D01*
X0028500Y0126000D01*
X0031000Y0123500D01*
X0031000Y0118500D01*
X0031000Y0123500D02*
X0033500Y0126000D01*
X0038500Y0126000D01*
X0041000Y0123500D01*
X0043500Y0126000D01*
X0048500Y0126000D01*
X0051000Y0123500D01*
X0053500Y0126000D01*
X0058500Y0126000D01*
X0061000Y0123500D01*
X0061000Y0118500D01*
X0061000Y0123500D02*
X0063500Y0126000D01*
X0068500Y0126000D01*
X0071000Y0123500D01*
X0073500Y0126000D01*
X0078500Y0126000D01*
X0081000Y0123500D01*
X0083500Y0126000D01*
X0088500Y0126000D01*
X0091000Y0123500D01*
X0091000Y0118500D01*
X0088500Y0116000D01*
X0083500Y0116000D01*
X0081000Y0118500D01*
X0078500Y0116000D01*
X0073500Y0116000D01*
X0071000Y0118500D01*
X0068500Y0116000D01*
X0071000Y0118500D02*
X0071000Y0123500D01*
X0081000Y0123500D02*
X0081000Y0118500D01*
X0091000Y0118500D02*
X0093500Y0116000D01*
X0098500Y0116000D01*
X0101000Y0118500D01*
X0103500Y0116000D01*
X0108500Y0116000D01*
X0111000Y0118500D01*
X0113500Y0116000D01*
X0118500Y0116000D01*
X0121000Y0118500D01*
X0123500Y0116000D01*
X0128500Y0116000D01*
X0131000Y0118500D01*
X0131000Y0123500D01*
X0128500Y0126000D01*
X0123500Y0126000D01*
X0121000Y0123500D01*
X0121000Y0118500D01*
X0121000Y0123500D02*
X0118500Y0126000D01*
X0113500Y0126000D01*
X0111000Y0123500D01*
X0111000Y0118500D01*
X0111000Y0123500D02*
X0108500Y0126000D01*
X0103500Y0126000D01*
X0101000Y0123500D01*
X0101000Y0118500D01*
X0101000Y0123500D02*
X0098500Y0126000D01*
X0093500Y0126000D01*
X0091000Y0123500D01*
X0088500Y0151000D02*
X0083500Y0151000D01*
X0081000Y0153500D01*
X0078500Y0151000D01*
X0073500Y0151000D01*
X0071000Y0153500D01*
X0068500Y0151000D01*
X0063500Y0151000D01*
X0061000Y0153500D01*
X0058500Y0151000D01*
X0053500Y0151000D01*
X0051000Y0153500D01*
X0048500Y0151000D01*
X0043500Y0151000D01*
X0041000Y0153500D01*
X0038500Y0151000D01*
X0033500Y0151000D01*
X0031000Y0153500D01*
X0028500Y0151000D01*
X0023500Y0151000D01*
X0021000Y0153500D01*
X0018500Y0151000D01*
X0013500Y0151000D01*
X0011000Y0153500D01*
X0011000Y0158500D01*
X0013500Y0161000D01*
X0018500Y0161000D01*
X0021000Y0158500D01*
X0023500Y0161000D01*
X0028500Y0161000D01*
X0031000Y0158500D01*
X0031000Y0153500D01*
X0031000Y0158500D02*
X0033500Y0161000D01*
X0038500Y0161000D01*
X0041000Y0158500D01*
X0043500Y0161000D01*
X0048500Y0161000D01*
X0051000Y0158500D01*
X0053500Y0161000D01*
X0058500Y0161000D01*
X0061000Y0158500D01*
X0061000Y0153500D01*
X0061000Y0158500D02*
X0063500Y0161000D01*
X0068500Y0161000D01*
X0071000Y0158500D01*
X0073500Y0161000D01*
X0078500Y0161000D01*
X0081000Y0158500D01*
X0083500Y0161000D01*
X0088500Y0161000D01*
X0091000Y0158500D01*
X0091000Y0153500D01*
X0088500Y0151000D01*
X0091000Y0153500D02*
X0093500Y0151000D01*
X0098500Y0151000D01*
X0101000Y0153500D01*
X0103500Y0151000D01*
X0108500Y0151000D01*
X0111000Y0153500D01*
X0113500Y0151000D01*
X0118500Y0151000D01*
X0121000Y0153500D01*
X0121000Y0158500D01*
X0118500Y0161000D01*
X0113500Y0161000D01*
X0111000Y0158500D01*
X0111000Y0153500D01*
X0111000Y0158500D02*
X0108500Y0161000D01*
X0103500Y0161000D01*
X0101000Y0158500D01*
X0101000Y0153500D01*
X0101000Y0158500D02*
X0098500Y0161000D01*
X0093500Y0161000D01*
X0091000Y0158500D01*
X0081000Y0158500D02*
X0081000Y0153500D01*
X0071000Y0153500D02*
X0071000Y0158500D01*
X0051000Y0158500D02*
X0051000Y0153500D01*
X0041000Y0153500D02*
X0041000Y0158500D01*
X0021000Y0158500D02*
X0021000Y0153500D01*
X0021000Y0123500D02*
X0021000Y0118500D01*
X0041000Y0118500D02*
X0041000Y0123500D01*
X0051000Y0123500D02*
X0051000Y0118500D01*
X0156000Y0118500D02*
X0158500Y0116000D01*
X0163500Y0116000D01*
X0166000Y0118500D01*
X0166000Y0123500D01*
X0163500Y0126000D01*
X0158500Y0126000D01*
X0156000Y0123500D01*
X0156000Y0118500D01*
D13*
X0155950Y0128450D02*
X0155950Y0132954D01*
X0158202Y0132954D01*
X0158953Y0132203D01*
X0158953Y0130702D01*
X0158202Y0129951D01*
X0155950Y0129951D01*
X0160554Y0128450D02*
X0162055Y0128450D01*
X0161305Y0128450D02*
X0161305Y0132954D01*
X0162055Y0132954D02*
X0160554Y0132954D01*
X0163623Y0132954D02*
X0166626Y0128450D01*
X0166626Y0132954D01*
X0168227Y0132203D02*
X0168227Y0131453D01*
X0168978Y0130702D01*
X0171230Y0130702D01*
X0171230Y0129201D02*
X0171230Y0132203D01*
X0170479Y0132954D01*
X0168978Y0132954D01*
X0168227Y0132203D01*
X0168227Y0129201D02*
X0168978Y0128450D01*
X0170479Y0128450D01*
X0171230Y0129201D01*
X0163623Y0128450D02*
X0163623Y0132954D01*
X0147410Y0102954D02*
X0145158Y0102954D01*
X0145158Y0098450D01*
X0147410Y0098450D01*
X0148160Y0099201D01*
X0148160Y0102203D01*
X0147410Y0102954D01*
X0143556Y0102954D02*
X0143556Y0098450D01*
X0140554Y0102954D01*
X0140554Y0098450D01*
X0138953Y0099201D02*
X0138953Y0100702D01*
X0137451Y0100702D01*
X0135950Y0102203D02*
X0135950Y0099201D01*
X0136701Y0098450D01*
X0138202Y0098450D01*
X0138953Y0099201D01*
X0138953Y0102203D02*
X0138202Y0102954D01*
X0136701Y0102954D01*
X0135950Y0102203D01*
X0155950Y0072954D02*
X0158202Y0072954D01*
X0158953Y0072203D01*
X0158953Y0070702D01*
X0158202Y0069951D01*
X0155950Y0069951D01*
X0155950Y0068450D02*
X0155950Y0072954D01*
X0160554Y0072954D02*
X0162055Y0072954D01*
X0161305Y0072954D02*
X0161305Y0068450D01*
X0162055Y0068450D02*
X0160554Y0068450D01*
X0163623Y0068450D02*
X0163623Y0072954D01*
X0166626Y0068450D01*
X0166626Y0072954D01*
X0168227Y0071453D02*
X0169728Y0072954D01*
X0169728Y0068450D01*
X0168227Y0068450D02*
X0171230Y0068450D01*
X0172831Y0069201D02*
X0175834Y0072203D01*
X0175834Y0069201D01*
X0175083Y0068450D01*
X0173582Y0068450D01*
X0172831Y0069201D01*
X0172831Y0072203D01*
X0173582Y0072954D01*
X0175083Y0072954D01*
X0175834Y0072203D01*
X0041576Y0037203D02*
X0040825Y0037954D01*
X0039324Y0037954D01*
X0038574Y0037203D01*
X0036972Y0037954D02*
X0033970Y0037954D01*
X0035471Y0037954D02*
X0035471Y0033450D01*
X0038574Y0033450D02*
X0041576Y0036453D01*
X0041576Y0037203D01*
X0041576Y0033450D02*
X0038574Y0033450D01*
X0032368Y0034201D02*
X0032368Y0037954D01*
X0029366Y0037954D02*
X0029366Y0034201D01*
X0030116Y0033450D01*
X0031618Y0033450D01*
X0032368Y0034201D01*
X0027764Y0035702D02*
X0027764Y0037203D01*
X0027014Y0037954D01*
X0024762Y0037954D01*
X0024762Y0033450D01*
X0024762Y0034951D02*
X0027014Y0034951D01*
X0027764Y0035702D01*
X0023160Y0037954D02*
X0020158Y0037954D01*
X0021659Y0037954D02*
X0021659Y0033450D01*
X0018556Y0034201D02*
X0018556Y0037954D01*
X0015554Y0037954D02*
X0015554Y0034201D01*
X0016305Y0033450D01*
X0017806Y0033450D01*
X0018556Y0034201D01*
X0013953Y0034201D02*
X0013953Y0037203D01*
X0013202Y0037954D01*
X0011701Y0037954D01*
X0010950Y0037203D01*
X0010950Y0034201D01*
X0011701Y0033450D01*
X0013202Y0033450D01*
X0013953Y0034201D01*
X0015554Y0068450D02*
X0017055Y0068450D01*
X0016305Y0068450D02*
X0016305Y0072954D01*
X0017055Y0072954D02*
X0015554Y0072954D01*
X0013953Y0072203D02*
X0013953Y0070702D01*
X0013202Y0069951D01*
X0010950Y0069951D01*
X0010950Y0068450D02*
X0010950Y0072954D01*
X0013202Y0072954D01*
X0013953Y0072203D01*
X0018623Y0072954D02*
X0018623Y0068450D01*
X0021626Y0068450D02*
X0021626Y0072954D01*
X0023227Y0072203D02*
X0023978Y0072954D01*
X0025479Y0072954D01*
X0026230Y0072203D01*
X0026230Y0071453D01*
X0023227Y0068450D01*
X0026230Y0068450D01*
X0021626Y0068450D02*
X0018623Y0072954D01*
X0018623Y0128450D02*
X0018623Y0132954D01*
X0021626Y0128450D01*
X0021626Y0132954D01*
X0023227Y0131453D02*
X0024728Y0132954D01*
X0024728Y0128450D01*
X0023227Y0128450D02*
X0026230Y0128450D01*
X0017055Y0128450D02*
X0015554Y0128450D01*
X0016305Y0128450D02*
X0016305Y0132954D01*
X0017055Y0132954D02*
X0015554Y0132954D01*
X0013953Y0132203D02*
X0013953Y0130702D01*
X0013202Y0129951D01*
X0010950Y0129951D01*
X0010950Y0128450D02*
X0010950Y0132954D01*
X0013202Y0132954D01*
X0013953Y0132203D01*
X0013202Y0163450D02*
X0011701Y0163450D01*
X0010950Y0164201D01*
X0010950Y0167203D01*
X0011701Y0167954D01*
X0013202Y0167954D01*
X0013953Y0167203D01*
X0013953Y0164201D01*
X0013202Y0163450D01*
X0015554Y0164201D02*
X0016305Y0163450D01*
X0017806Y0163450D01*
X0018556Y0164201D01*
X0018556Y0167954D01*
X0020158Y0167954D02*
X0023160Y0167954D01*
X0021659Y0167954D02*
X0021659Y0163450D01*
X0024762Y0163450D02*
X0024762Y0167954D01*
X0027014Y0167954D01*
X0027764Y0167203D01*
X0027764Y0165702D01*
X0027014Y0164951D01*
X0024762Y0164951D01*
X0029366Y0164201D02*
X0030116Y0163450D01*
X0031618Y0163450D01*
X0032368Y0164201D01*
X0032368Y0167954D01*
X0033970Y0167954D02*
X0036972Y0167954D01*
X0035471Y0167954D02*
X0035471Y0163450D01*
X0038574Y0163450D02*
X0041576Y0163450D01*
X0040075Y0163450D02*
X0040075Y0167954D01*
X0038574Y0166453D01*
X0029366Y0167954D02*
X0029366Y0164201D01*
X0015554Y0164201D02*
X0015554Y0167954D01*
M02*
