%
M48
M72
T01C0.04000
%
T01
X16000Y26000
X26000Y26000
X36000Y26000
X46000Y26000
X56000Y26000
X66000Y26000
X76000Y26000
X86000Y26000
X96000Y26000
X106000Y26000
X116000Y26000
X116000Y61000
X106000Y61000
X96000Y61000
X86000Y61000
X76000Y61000
X66000Y61000
X56000Y61000
X46000Y61000
X36000Y61000
X26000Y61000
X16000Y61000
X16000Y121000
X26000Y121000
X36000Y121000
X46000Y121000
X56000Y121000
X66000Y121000
X76000Y121000
X86000Y121000
X96000Y121000
X106000Y121000
X116000Y121000
X126000Y121000
X141000Y91000
X161000Y121000
X116000Y156000
X106000Y156000
X96000Y156000
X86000Y156000
X76000Y156000
X66000Y156000
X56000Y156000
X46000Y156000
X36000Y156000
X26000Y156000
X16000Y156000
X126000Y61000
X161000Y61000
M30
